PathFileType	4	(X/Y/Z)	SUBJ11_3_walk_RCNL2025.trc
DataRate	CameraRate	NumFrames	NumMarkers	Units	OrigDataRate	OrigDataStartFrame	OrigNumFrames
100	100	4	25	mm	100	379	432
Frame#	Time	R_Shoulder			L_Shoulder			C7			J_Notch			R_Elbow			L_Elbow			R_Wrist			L_Wrist			R_Asis			L_Asis			Sacral			Thoracic			Sternum			R_Thigh_Lateral			R_Knee_Lateral			R_Shank_Lateral			R_Ankle_Lateral			R_Heel			R_Toe			L_Thigh_Lateral			L_Knee_Lateral			L_Shank_Lateral			L_Ankle_Lateral			L_Heel			L_Toe		
		X1	Y1	Z1	X2	Y2	Z2	X3	Y3	Z3	X4	Y4	Z4	X5	Y5	Z5	X6	Y6	Z6	X7	Y7	Z7	X8	Y8	Z8	X9	Y9	Z9	X10	Y10	Z10	X11	Y11	Z11	X12	Y12	Z12	X13	Y13	Z13	X14	Y14	Z14	X15	Y15	Z15	X16	Y16	Z16	X17	Y17	Z17	X18	Y18	Z18	X19	Y19	Z19	X20	Y20	Z20	X21	Y21	Z21	X22	Y22	Z22	X23	Y23	Z23	X24	Y24	Z24	X25	Y25	Z25
379	3.78000000	2411.069092	1422.618774	38.169338	2434.975342	1425.847778	-359.639404	2374.725586	1469.212036	-159.694717	2527.472900	1375.053223	-148.780640	2334.818115	1084.922241	114.021317	2433.909424	1078.301270	-436.775757	2398.218384	830.235535	110.727554	2538.932251	836.371216	-403.517242	2514.350342	956.237000	-7.006701	2511.360596	950.400879	-297.638153	2339.245117	967.875610	-156.604965	2311.245117	1283.103638	-170.004959	2601.823486	1179.337524	-149.989151	2499.254639	604.834839	32.639690	2547.586426	459.839020	-39.792561	2550.715332	250.450592	-17.318777	2545.028076	55.737457	-93.365257	2492.021729	40.305382	-148.964050	2683.117676	38.910618	-110.574287	2425.637695	600.805664	-386.766876	2417.427734	455.218140	-310.478180	2269.129150	309.446564	-335.738617	2133.173584	177.247467	-256.216675	2098.804932	213.078857	-199.522598	2200.334717	58.943375	-225.605240
380	3.79000000	2422.066162	1425.027832	38.402969	2444.686279	1426.713989	-359.808868	2385.031250	1470.920532	-159.076111	2538.092773	1377.270874	-148.763107	2348.243164	1086.814575	115.232101	2440.383057	1078.565674	-434.745056	2415.076538	833.038605	111.417343	2536.880493	833.035095	-403.789337	2524.955322	957.609924	-6.303403	2522.624023	952.405334	-297.075958	2350.367920	969.327209	-156.528183	2320.444824	1285.162598	-168.212082	2613.001221	1181.658936	-149.439789	2505.457031	605.693726	32.562408	2550.744385	460.029205	-40.304161	2552.258545	250.457138	-17.619774	2545.157959	55.825706	-93.606567	2491.963623	40.287434	-148.973358	2683.175537	38.916683	-110.611481	2442.574463	602.582764	-387.235626	2439.275635	457.256714	-311.932281	2290.218506	313.383301	-337.261230	2153.256104	182.359619	-257.901398	2119.774414	217.147705	-199.922409	2219.963867	63.174580	-231.555908
381	3.80000000	2432.972168	1427.481812	38.532330	2454.364014	1427.420532	-360.094971	2395.357178	1472.613770	-158.628372	2548.645508	1379.379761	-148.815262	2361.959229	1088.748047	116.479378	2446.780762	1078.768188	-432.780518	2432.079346	835.897675	112.119492	2534.719238	830.044464	-404.013092	2535.354004	958.853271	-5.569903	2533.902100	954.451416	-296.535095	2361.284668	970.639832	-156.424011	2329.485596	1287.237549	-166.439438	2624.017578	1183.869873	-148.873398	2511.595947	606.593079	32.542957	2553.702881	460.240448	-40.804180	2553.837646	250.489059	-17.879709	2545.245605	55.903683	-93.791656	2491.878418	40.252068	-148.908981	2683.171387	38.930542	-110.584785	2459.477783	604.560303	-387.712097	2461.032471	459.631653	-313.282654	2311.627686	317.059296	-338.716064	2174.428467	186.338058	-259.540863	2141.576416	219.887894	-200.336624	2241.516602	66.938370	-237.299820
382	3.81000000	2443.803223	1429.976440	38.549950	2464.052490	1428.013184	-360.460022	2405.738770	1474.283447	-158.465576	2559.152100	1381.364868	-148.934509	2375.978271	1090.731567	117.741997	2453.104736	1078.980469	-430.894348	2449.207031	838.810944	112.831806	2532.517334	827.451019	-404.176956	2545.556641	959.983093	-4.782090	2545.216553	956.505249	-295.982422	2372.004883	971.830811	-156.268127	2338.533936	1289.268921	-164.826111	2634.868408	1185.943115	-148.298157	2517.503174	607.467896	32.499134	2556.445068	460.468781	-41.312782	2555.309570	250.554291	-18.129009	2545.294189	55.981544	-93.942307	2491.778320	40.208557	-148.810455	2683.115967	38.948067	-110.510201	2476.538574	606.700928	-388.236298	2482.630127	462.271576	-314.534790	2333.296143	320.366791	-340.118988	2196.675781	189.042725	-261.178223	2164.132080	221.299698	-200.938629	2264.855225	70.024162	-242.496445
